<svg xmlns="http://www.w3.org/2000/svg" xmlns:xlink="http://www.w3.org/1999/xlink" viewBox="0 0 1920 1080"><defs><style>.cls-1{isolation:isolate;}.cls-2{fill:#f6c01c;}.cls-3{fill:url(#linear-gradient);}.cls-4{opacity:0.16;mix-blend-mode:overlay;}.cls-5{fill:#1d82aa;}.cls-6{fill:#0f4b6a;}.cls-7{fill:#026a9e;}.cls-8{fill:#ffcf4d;}.cls-9{fill:#ba5007;}.cls-10{fill:#f9960d;}.cls-11{fill:#34d197;}.cls-12{fill:#02996a;}.cls-13{fill:#10b780;}.cls-14{fill:#e0e0e0;}.cls-14,.cls-39{mix-blend-mode:multiply;}.cls-15{fill:#176537;}.cls-16{fill:#02986a;}.cls-17{fill:#ff3652;}.cls-18{fill:#fe3550;}.cls-19{fill:#ff546b;}.cls-20{fill:#ffc401;}.cls-21{fill:#ffc801;}.cls-22{fill:#ffe821;}.cls-23{fill:#ffe502;}.cls-24{fill:#7d3207;}.cls-25{font-size:68.92px;}.cls-25,.cls-26,.cls-27,.cls-28,.cls-29,.cls-30,.cls-31,.cls-32,.cls-33,.cls-34,.cls-35,.cls-36,.cls-37,.cls-38{fill:#fff6bf;}.cls-25,.cls-26,.cls-27,.cls-29,.cls-30,.cls-31,.cls-32,.cls-33,.cls-34,.cls-35,.cls-36,.cls-37,.cls-38{font-family:OpenSans-Bold, Open Sans;font-weight:700;}.cls-26{font-size:53.15px;}.cls-27{font-size:52.15px;}.cls-29{font-size:54.34px;}.cls-30{font-size:53.32px;}.cls-31{font-size:30.64px;}.cls-32{font-size:30.07px;}.cls-33{font-size:18.11px;}.cls-34{font-size:17.77px;}.cls-35{font-size:23.3px;}.cls-36{font-size:22.87px;}.cls-37{font-size:17.25px;}.cls-38{font-size:16.93px;}.cls-39{fill:#264e6b;opacity:0.2;}.cls-40{fill:#fff;}.cls-41{fill:#703e03;}.cls-42{fill:#844d03;}.cls-43{fill:#db9b8a;}.cls-44{fill:#303033;}.cls-45{fill:#c6887b;}</style><linearGradient id="linear-gradient" x1="968.6" y1="161.67" x2="968.6" y2="999.35" gradientUnits="userSpaceOnUse"><stop offset="0.25" stop-color="#f6c01c"/><stop offset="0.75" stop-color="#f7a412"/><stop offset="1" stop-color="#f8950d"/></linearGradient></defs><g class="cls-1"><g id="_129-Square_Root_Calculator" data-name="129-Square Root Calculator"><rect class="cls-2" width="1920" height="1080"/><polygon class="cls-3" points="1511.1 732.13 1734.09 606.49 977.03 169.36 203.11 614.77 407.89 732.14 1511.1 732.13"/><polygon class="cls-4" points="1511.1 732.13 1734.09 606.49 977.03 169.36 203.11 614.77 407.89 732.14 1511.1 732.13"/><g class="cls-1"><polygon class="cls-5" points="1512.11 653.72 1511.1 732.13 961.3 1051.65 962.3 973.24 1512.11 653.72"/><polygon class="cls-6" points="962.3 973.24 961.3 1051.65 407.89 732.14 408.9 653.73 962.3 973.24"/><polygon class="cls-7" points="1512.11 653.72 962.3 973.24 408.9 653.73 958.7 334.21 1512.11 653.72"/></g><g class="cls-1"><polygon class="cls-8" points="751.01 638.55 750.74 659.63 604.67 744.52 604.93 723.44 751.01 638.55"/><polygon class="cls-9" points="604.93 723.44 604.67 744.52 457.64 659.63 457.9 638.56 604.93 723.44"/><polygon class="cls-10" points="751.01 638.55 604.93 723.44 457.9 638.56 603.98 553.67 751.01 638.55"/></g><g class="cls-1"><polygon class="cls-8" points="929.69 741.73 929.43 762.8 783.35 847.69 783.62 826.62 929.69 741.73"/><polygon class="cls-9" points="783.62 826.62 783.35 847.69 636.32 762.8 636.59 741.73 783.62 826.62"/><polygon class="cls-10" points="929.69 741.73 783.62 826.62 636.59 741.73 782.66 656.84 929.69 741.73"/></g><g class="cls-1"><polygon class="cls-8" points="1108.37 844.9 1108.11 865.97 962.03 950.86 962.3 929.79 1108.37 844.9"/><polygon class="cls-9" points="962.3 929.79 962.03 950.86 815 865.97 815.27 844.9 962.3 929.79"/><polygon class="cls-10" points="1108.37 844.9 962.3 929.79 815.27 844.9 961.34 760.01 1108.37 844.9"/></g><g class="cls-1"><polygon class="cls-8" points="930.3 535.38 930.04 556.46 783.96 641.35 784.23 620.27 930.3 535.38"/><polygon class="cls-9" points="784.23 620.27 783.96 641.35 636.93 556.46 637.2 535.38 784.23 620.27"/><polygon class="cls-10" points="930.3 535.38 784.23 620.27 637.2 535.38 783.27 450.5 930.3 535.38"/></g><g class="cls-1"><polygon class="cls-8" points="1287.67 741.73 1287.4 762.8 1141.33 847.69 1141.59 826.62 1287.67 741.73"/><polygon class="cls-9" points="1141.59 826.62 1141.33 847.69 994.29 762.8 994.56 741.73 1141.59 826.62"/><polygon class="cls-10" points="1287.67 741.73 1141.59 826.62 994.56 741.73 1140.64 656.84 1287.67 741.73"/></g><g class="cls-1"><polygon class="cls-8" points="1109.6 432.21 1109.33 453.28 963.25 538.17 963.52 517.1 1109.6 432.21"/><polygon class="cls-9" points="963.52 517.1 963.25 538.17 816.22 453.29 816.49 432.21 963.52 517.1"/><polygon class="cls-10" points="1109.6 432.21 963.52 517.1 816.49 432.21 962.57 347.32 1109.6 432.21"/></g><g class="cls-1"><polygon class="cls-8" points="1288.28 535.38 1288.01 556.46 1141.94 641.35 1142.2 620.27 1288.28 535.38"/><polygon class="cls-9" points="1142.2 620.27 1141.94 641.35 994.91 556.46 995.17 535.38 1142.2 620.27"/><polygon class="cls-10" points="1288.28 535.38 1142.2 620.27 995.17 535.38 1141.25 450.5 1288.28 535.38"/></g><g class="cls-1"><polygon class="cls-8" points="1466.96 638.55 1466.69 659.63 1320.62 744.52 1320.88 723.44 1466.96 638.55"/><polygon class="cls-9" points="1320.88 723.44 1320.62 744.52 1173.59 659.63 1173.85 638.56 1320.88 723.44"/><polygon class="cls-10" points="1466.96 638.55 1320.88 723.44 1173.85 638.56 1319.93 553.67 1466.96 638.55"/></g><g class="cls-1"><polygon class="cls-11" points="1108.98 598.06 1108.72 658.23 962.64 743.12 962.91 682.95 1108.98 598.06"/><polygon class="cls-12" points="962.91 682.95 962.64 743.12 815.61 658.23 815.88 598.06 962.91 682.95"/><polygon class="cls-13" points="1108.98 598.06 962.91 682.95 815.88 598.06 961.95 513.17 1108.98 598.06"/></g><path class="cls-14" d="M732,779.49c9,5.21,23.69,5.18,32.76-.06s9.12-13.71.1-18.92-23.68-5.18-32.76.06S723,774.28,732,779.49Z"/><path class="cls-15" d="M748.53,766.48c.16-19.27,1.53-45.45,1.53-45.45s5.67,13.37,5.72,20.66C755.92,761.76,748.53,766.48,748.53,766.48Z"/><path class="cls-16" d="M747.66,765.65c-.53-6.19-2.38-11.11-4.35-16.32-2.75-7.31-5.61-14.87-4.7-26.14l3.36.27c-.85,10.52,1.74,17.4,4.49,24.68,2,5.2,4,10.57,4.56,17.22Z"/><path class="cls-15" d="M749.34,761.84c-7.25-14.7-24.1-24.21-24.1-24.21a66.86,66.86,0,0,0,2.87,13.57c2.39,7.48,22.18,15.12,22.18,15.12S751.48,766.17,749.34,761.84Z"/><path class="cls-17" d="M742.14,707.25c-.63,6.36,1.3,17.5-.64,17.72s-7.47-11-7.57-17.32,1.72-4,3.6-4.55C740.36,702.33,742.78,700.9,742.14,707.25Z"/><path class="cls-18" d="M740.32,708.5c.64,6.35-1.43,16.29.51,16.51s7.47-11,7.58-17.31-1.63-3.09-3.61-4.56C743.23,702,739.68,702.14,740.32,708.5Z"/><path class="cls-19" d="M740.72,714c.68,6-2.15,11.34.57,11,4.12-.52,7-2.51,7.79-5.21,1.06-3.47-.58-8.07-.49-11.87.16-6.75-1.38-2-4-1.23S740,708,740.72,714Z"/><path class="cls-19" d="M741.41,714c-.68,6,2.13,11.48-.58,11-5-.89-8.09-2.9-8.69-5.79-.68-3.31,1.48-7.69,1.4-11.29-.16-6.75,1.3-1.7,4-1.23C740,707.13,742.09,708,741.41,714Z"/><path class="cls-15" d="M761.42,769.66c-11.38-17.37-14.54-16.07-14.54-16.07s5.77-7.55,10.94-2.41C770,763.32,761.42,769.66,761.42,769.66Z"/><path class="cls-16" d="M761,769c-.94-13.08-1.62-22.53,10.85-37.59l2.59,2.15c-11.61,14-11,22.44-10.08,35.2Z"/><path class="cls-16" d="M761.86,765.79c6.07-15.22,15.65-17.55,15.65-17.55a66.14,66.14,0,0,1-4.59,13.09c-3.33,7.11-16.61,9.48-16.61,9.48A7.68,7.68,0,0,0,761.86,765.79Z"/><path class="cls-20" d="M779.61,723.14c-4,5-9.77,8.18-8.53,9.69s9.64.8,14.14-3.67,1.58-4.09.59-5.78C784.32,720.86,783.59,718.14,779.61,723.14Z"/><path class="cls-21" d="M780.05,725.31c-4.9,4.11-7,9.21-8.52,8s-1.06-9.62,3.28-14.23,3.32-1.07,5.76-.75C782.51,718.6,784.94,721.2,780.05,725.31Z"/><path class="cls-22" d="M775.91,729c-4.7,3.85-3,6.17-4.71,4-2.59-3.24-3.23-6.65-1.94-9.16,1.65-3.23,2.67-1.93,5.25-4.71,4.6-4.94-1,3,.37,5.38S780.61,725.12,775.91,729Z"/><path class="cls-23" d="M775.42,728.5c-3.73,4.8-6.16,3.28-3.89,4.82,4.23,2.88,7.81,3.57,10.26,1.92,2.8-1.9.94-3.08,3.51-5.61,4.82-4.72-3.11,1.33-5.38-.22C777.88,728,779.15,723.7,775.42,728.5Z"/><path class="cls-16" d="M736.46,773.86c-11.38-17.37-27.56-18.52-27.56-18.52s4.68-6.16,10.94-2.41C745.39,768.26,736.46,773.86,736.46,773.86Z"/><path class="cls-16" d="M736.08,773.66c-2.09-5.82-2.34-11.36-2.59-16.72-.37-8.27-.72-16.08-7.8-24.47l2.57-2.17c7.82,9.26,8.21,18,8.6,26.49.23,5.11.47,10.39,2.39,15.73Z"/><path class="cls-15" d="M736.14,769.76c.45-16.38,9.14-30,9.14-30s.39,14.15-.29,22-6.17,13.85-6.17,13.85S736,774.59,736.14,769.76Z"/><path class="cls-20" d="M718.93,723.31c4.21,4.8,6.31,11.06,8,10.12s2.5-9.35-1.1-14.57-3.75-2.29-5.58-1.61C717.52,718.27,714.72,718.51,718.93,723.31Z"/><path class="cls-21" d="M721.14,723.27c3.17,5.54,7.82,8.5,6.37,9.81s-9.65-.67-13.42-5.76-.46-3.46.29-5.81C715,719.65,718,717.72,721.14,723.27Z"/><path class="cls-22" d="M724,728c3,5.31,5.54,4,3.12,5.35-3.65,2-7.12,2-9.36.28-2.89-2.2-1.42-3-3.7-6-4.05-5.4,2.75,1.48,5.35.6S721.06,722.68,724,728Z"/><path class="cls-23" d="M723.46,728.39c4.06,4.52,2.13,6.65,4,4.69,3.59-3.66,4.9-7.06,3.71-9.77-1.36-3.09-2.86-1.47-4.89-4.45-3.8-5.58.75,3.31-1.17,5.26C723.42,725.88,719.4,723.87,723.46,728.39Z"/><path class="cls-16" d="M749.47,779.21c-.16-19.26-4.19-39.42-4.19-39.42s-5.67,13.37-5.72,20.66C739.42,780.52,749.47,779.21,749.47,779.21Z"/><path class="cls-16" d="M750.33,778.38,747,778.1a52.89,52.89,0,0,1,3.51-14.82c1.92-5.38,3.74-10.47,2.88-21.06l3.36-.27c.91,11.31-1,16.73-3.07,22.46A50.23,50.23,0,0,0,750.33,778.38Z"/><path class="cls-15" d="M748.66,774.57c7.25-14.69,17-16.25,17-16.25A66.19,66.19,0,0,1,760,771c-3.89,6.82-12.34,8-12.34,8S746.52,778.9,748.66,774.57Z"/><path class="cls-17" d="M753.2,726c.64,6.36-1.3,17.5.64,17.72s7.47-11,7.58-17.31-1.72-4-3.61-4.56C755,721.09,752.56,719.66,753.2,726Z"/><path class="cls-18" d="M755,727.26c-.64,6.35,1.43,16.29-.51,16.51s-7.47-11-7.57-17.31,1.63-3.09,3.6-4.56C752.11,720.73,755.66,720.9,755,727.26Z"/><path class="cls-19" d="M754.62,732.77c-.68,6,2.15,11.34-.57,11-4.11-.52-7-2.51-7.78-5.21-1.07-3.47.57-8.07.48-11.87-.15-6.75,1.38-2,4-1.23S755.3,726.73,754.62,732.77Z"/><path class="cls-19" d="M753.93,732.77c.68,6-2.13,11.48.58,11,5-.89,8.09-2.9,8.69-5.79.69-3.31-1.48-7.69-1.4-11.29.16-6.75-1.3-1.7-4-1.23C755.36,725.89,753.26,726.73,753.93,732.77Z"/><path class="cls-14" d="M608.86,662.23c9,5.21,23.68,5.18,32.76-.06s9.12-13.71.1-18.92-23.69-5.18-32.76.06S599.84,657,608.86,662.23Z"/><path class="cls-15" d="M625.4,649.22c.17-19.27,1.54-45.45,1.54-45.45s5.67,13.37,5.72,20.66C632.8,644.5,625.4,649.22,625.4,649.22Z"/><path class="cls-16" d="M624.54,648.39c-.53-6.19-2.39-11.11-4.35-16.32-2.76-7.31-5.61-14.87-4.7-26.14l3.35.27c-.84,10.52,1.75,17.4,4.5,24.68,2,5.2,4,10.57,4.56,17.22Z"/><path class="cls-15" d="M626.22,644.58c-7.25-14.7-24.1-24.21-24.1-24.21A65.9,65.9,0,0,0,605,633.94c2.39,7.48,22.18,15.12,22.18,15.12S628.36,648.91,626.22,644.58Z"/><path class="cls-17" d="M619,590c-.64,6.36,1.3,17.5-.64,17.72s-7.47-11-7.58-17.31,1.72-4,3.61-4.56C617.24,585.07,619.66,583.64,619,590Z"/><path class="cls-18" d="M617.2,591.24c.64,6.36-1.43,16.29.51,16.51s7.47-11,7.57-17.31-1.63-3.09-3.6-4.56C620.11,584.71,616.56,584.88,617.2,591.24Z"/><path class="cls-19" d="M617.6,596.75c.68,6-2.15,11.35.57,11,4.11-.52,7-2.51,7.78-5.21,1.07-3.47-.57-8.07-.48-11.87.15-6.74-1.38-2-4-1.23S616.92,590.71,617.6,596.75Z"/><path class="cls-19" d="M618.29,596.75c-.68,6,2.13,11.48-.58,11-5-.89-8.09-2.89-8.69-5.79-.69-3.31,1.48-7.68,1.39-11.29-.15-6.74,1.31-1.7,4-1.23C616.86,589.87,619,590.71,618.29,596.75Z"/><path class="cls-15" d="M638.3,652.4c-11.38-17.37-14.54-16.07-14.54-16.07s5.77-7.55,10.94-2.4C646.87,646.06,638.3,652.4,638.3,652.4Z"/><path class="cls-16" d="M637.83,651.75c-.94-13.08-1.63-22.53,10.84-37.59l2.59,2.15c-11.6,14-11,22.45-10.07,35.2Z"/><path class="cls-16" d="M638.74,648.53C644.8,633.31,654.39,631,654.39,631a66.14,66.14,0,0,1-4.59,13.09c-3.33,7.11-16.61,9.48-16.61,9.48A7.68,7.68,0,0,0,638.74,648.53Z"/><path class="cls-20" d="M656.49,605.88c-4,5-9.77,8.18-8.53,9.69s9.64.8,14.13-3.67,1.59-4.09.6-5.77C661.2,603.6,660.46,600.88,656.49,605.88Z"/><path class="cls-21" d="M656.92,608.05c-4.89,4.11-7,9.21-8.52,8s-1-9.61,3.29-14.23,3.32-1.07,5.76-.75C659.39,601.34,661.81,603.94,656.92,608.05Z"/><path class="cls-22" d="M652.79,611.72c-4.7,3.85-3,6.17-4.72,4-2.58-3.24-3.23-6.65-1.94-9.16,1.66-3.23,2.68-1.93,5.26-4.71,4.6-4.94-1,3,.37,5.38S657.49,607.87,652.79,611.72Z"/><path class="cls-23" d="M652.3,611.24c-3.73,4.8-6.17,3.28-3.9,4.82,4.23,2.88,7.82,3.57,10.27,1.92,2.8-1.89.94-3.08,3.51-5.61,4.82-4.72-3.12,1.33-5.38-.22C654.76,610.76,656,606.44,652.3,611.24Z"/><path class="cls-16" d="M613.34,656.6c-11.38-17.37-27.57-18.52-27.57-18.52s4.69-6.16,11-2.41C622.27,651,613.34,656.6,613.34,656.6Z"/><path class="cls-16" d="M613,656.4c-2.09-5.82-2.34-11.36-2.59-16.72-.37-8.27-.73-16.08-7.8-24.47l2.57-2.16c7.81,9.25,8.21,18,8.59,26.48.24,5.11.47,10.39,2.4,15.73Z"/><path class="cls-15" d="M613,652.5c.46-16.38,9.15-30,9.15-30s.39,14.15-.29,22-6.17,13.85-6.17,13.85S612.88,657.33,613,652.5Z"/><path class="cls-20" d="M595.81,606.05c4.21,4.81,6.31,11.07,8,10.12s2.49-9.35-1.1-14.56-3.75-2.29-5.58-1.62C594.4,601,591.59,601.25,595.81,606.05Z"/><path class="cls-21" d="M598,606c3.18,5.54,7.83,8.5,6.38,9.81s-9.65-.67-13.42-5.76-.47-3.46.28-5.81C591.85,602.39,594.84,600.47,598,606Z"/><path class="cls-22" d="M600.9,610.73c3,5.31,5.53,4,3.12,5.35-3.65,2-7.12,2-9.37.29-2.88-2.21-1.42-3-3.69-6-4.05-5.41,2.75,1.47,5.35.59S597.94,605.42,600.9,610.73Z"/><path class="cls-23" d="M600.34,611.13c4.06,4.52,2.13,6.65,4,4.69,3.59-3.66,4.9-7.06,3.71-9.76-1.37-3.1-2.87-1.48-4.89-4.46-3.8-5.58.75,3.31-1.18,5.26C600.3,608.62,596.27,606.61,600.34,611.13Z"/><path class="cls-16" d="M626.35,662c-.17-19.26-4.19-39.42-4.19-39.42s-5.67,13.37-5.72,20.66C616.3,663.26,626.35,662,626.35,662Z"/><path class="cls-16" d="M627.21,661.12l-3.35-.28a53.27,53.27,0,0,1,3.5-14.82c1.93-5.38,3.75-10.47,2.89-21.06l3.36-.27c.91,11.32-1,16.73-3.08,22.46A50.62,50.62,0,0,0,627.21,661.12Z"/><path class="cls-15" d="M625.53,657.31c7.26-14.69,17-16.25,17-16.25a66.49,66.49,0,0,1-5.6,12.68c-3.89,6.82-12.34,8-12.34,8S623.39,661.65,625.53,657.31Z"/><path class="cls-17" d="M630.08,608.75c.63,6.36-1.3,17.5.64,17.72s7.47-11,7.57-17.31-1.72-4-3.6-4.56C631.86,603.83,629.44,602.4,630.08,608.75Z"/><path class="cls-18" d="M631.9,610c-.64,6.36,1.43,16.29-.51,16.51s-7.47-11-7.58-17.31,1.63-3.09,3.61-4.56C629,603.47,632.54,603.64,631.9,610Z"/><path class="cls-19" d="M631.5,615.51c-.68,6,2.15,11.35-.58,11-4.11-.52-6.95-2.51-7.78-5.21-1.06-3.47.58-8.07.49-11.87-.16-6.74,1.38-2,4-1.23S632.18,609.47,631.5,615.51Z"/><path class="cls-19" d="M630.81,615.51c.68,6-2.13,11.48.58,11,5-.89,8.09-2.89,8.69-5.79.68-3.31-1.48-7.68-1.4-11.29.16-6.74-1.3-1.7-4-1.23C632.24,608.63,630.13,609.47,630.81,615.51Z"/><path class="cls-14" d="M1120.05,521.38c9,5.21,23.69,5.18,32.76-.06s9.12-13.71.11-18.92-23.69-5.18-32.77.06S1111,516.17,1120.05,521.38Z"/><path class="cls-15" d="M1136.6,508.37c.16-19.27,1.53-45.45,1.53-45.45s5.67,13.36,5.72,20.66C1144,503.65,1136.6,508.37,1136.6,508.37Z"/><path class="cls-16" d="M1135.73,507.54c-.52-6.19-2.38-11.11-4.35-16.32-2.75-7.31-5.6-14.87-4.7-26.14l3.36.27c-.85,10.52,1.75,17.39,4.49,24.68,2,5.2,4,10.57,4.56,17.22Z"/><path class="cls-15" d="M1137.41,503.72c-7.25-14.69-24.09-24.2-24.09-24.2a66.37,66.37,0,0,0,2.86,13.57c2.39,7.48,22.18,15.12,22.18,15.12S1139.55,508.06,1137.41,503.72Z"/><path class="cls-17" d="M1130.21,449.14c-.63,6.36,1.3,17.49-.64,17.72s-7.47-11-7.57-17.32,1.72-4,3.6-4.55C1128.43,444.22,1130.85,442.78,1130.21,449.14Z"/><path class="cls-18" d="M1128.39,450.39c.64,6.35-1.43,16.29.52,16.51s7.46-11,7.57-17.31-1.63-3.09-3.61-4.56C1131.31,443.86,1127.75,444,1128.39,450.39Z"/><path class="cls-19" d="M1128.79,455.9c.68,6-2.15,11.34.58,11,4.11-.52,7-2.51,7.78-5.21,1.06-3.47-.58-8.07-.49-11.87.16-6.75-1.38-2-4-1.23S1128.11,449.86,1128.79,455.9Z"/><path class="cls-19" d="M1129.48,455.9c-.68,6,2.13,11.48-.57,11-5-.89-8.09-2.9-8.69-5.79-.69-3.31,1.47-7.69,1.39-11.29-.16-6.75,1.3-1.7,4-1.23C1128.05,449,1130.16,449.86,1129.48,455.9Z"/><path class="cls-15" d="M1149.49,511.55c-11.38-17.37-14.54-16.07-14.54-16.07s5.77-7.55,10.94-2.41C1158.07,505.21,1149.49,511.55,1149.49,511.55Z"/><path class="cls-16" d="M1149,510.9c-.94-13.08-1.62-22.53,10.85-37.59l2.59,2.15c-11.61,14-11,22.44-10.08,35.2Z"/><path class="cls-16" d="M1149.93,507.68c6.07-15.22,15.65-17.55,15.65-17.55a66.46,66.46,0,0,1-4.58,13.09c-3.34,7.11-16.62,9.48-16.62,9.48A7.68,7.68,0,0,0,1149.93,507.68Z"/><path class="cls-20" d="M1167.68,465c-4,5-9.76,8.17-8.53,9.69s9.64.79,14.14-3.67,1.59-4.09.59-5.78C1172.4,462.75,1171.66,460,1167.68,465Z"/><path class="cls-21" d="M1168.12,467.19c-4.89,4.11-7,9.22-8.52,8s-1.06-9.62,3.28-14.23,3.32-1.07,5.76-.75C1170.58,460.49,1173,463.09,1168.12,467.19Z"/><path class="cls-22" d="M1164,470.87c-4.69,3.85-3,6.17-4.71,4-2.59-3.24-3.23-6.65-1.94-9.16,1.66-3.23,2.67-1.93,5.26-4.71,4.59-4.94-1,3,.36,5.38S1168.68,467,1164,470.87Z"/><path class="cls-23" d="M1163.49,470.39c-3.72,4.8-6.16,3.28-3.89,4.82,4.23,2.88,7.81,3.57,10.26,1.92,2.8-1.9.94-3.09,3.51-5.61,4.82-4.72-3.11,1.33-5.38-.22C1166,469.91,1167.22,465.59,1163.49,470.39Z"/><path class="cls-16" d="M1124.53,515.75c-11.38-17.37-27.56-18.52-27.56-18.52s4.69-6.16,10.94-2.41C1133.47,510.15,1124.53,515.75,1124.53,515.75Z"/><path class="cls-16" d="M1124.16,515.55c-2.1-5.83-2.35-11.36-2.59-16.72-.38-8.27-.73-16.08-7.81-24.47l2.58-2.17c7.81,9.26,8.2,18,8.59,26.49.23,5.1.47,10.38,2.39,15.73Z"/><path class="cls-15" d="M1124.21,511.65c.45-16.38,9.14-30,9.14-30s.4,14.15-.29,22-6.17,13.85-6.17,13.85S1124.07,516.48,1124.21,511.65Z"/><path class="cls-20" d="M1107,465.2c4.22,4.8,6.31,11.06,8,10.12s2.5-9.35-1.1-14.57-3.75-2.29-5.58-1.61C1105.59,460.16,1102.79,460.4,1107,465.2Z"/><path class="cls-21" d="M1109.21,465.16c3.17,5.54,7.83,8.49,6.38,9.8s-9.66-.67-13.43-5.76-.46-3.46.29-5.8C1103.05,461.54,1106,459.61,1109.21,465.16Z"/><path class="cls-22" d="M1112.09,469.88c3,5.3,5.54,4.05,3.12,5.35-3.65,2-7.12,2-9.36.28-2.88-2.2-1.42-3-3.7-6-4.05-5.4,2.75,1.48,5.36.6S1109.13,464.57,1112.09,469.88Z"/><path class="cls-23" d="M1111.53,470.27c4.06,4.53,2.13,6.65,4.06,4.69,3.58-3.65,4.89-7,3.7-9.76-1.36-3.09-2.86-1.47-4.89-4.45-3.8-5.58.76,3.31-1.17,5.26C1111.49,467.77,1107.47,465.75,1111.53,470.27Z"/><path class="cls-16" d="M1137.54,521.1c-.16-19.26-4.19-39.42-4.19-39.42s-5.67,13.36-5.72,20.66C1127.49,522.41,1137.54,521.1,1137.54,521.1Z"/><path class="cls-16" d="M1138.4,520.27l-3.35-.28a52.89,52.89,0,0,1,3.51-14.82c1.92-5.38,3.74-10.47,2.89-21.06l3.35-.27c.91,11.31-1,16.73-3.07,22.46A50.14,50.14,0,0,0,1138.4,520.27Z"/><path class="cls-15" d="M1136.73,516.46c7.25-14.69,17-16.25,17-16.25a66.19,66.19,0,0,1-5.61,12.68c-3.89,6.82-12.33,8.05-12.33,8.05S1134.59,520.79,1136.73,516.46Z"/><path class="cls-17" d="M1141.27,467.9c.64,6.36-1.3,17.49.64,17.72s7.47-11,7.58-17.32-1.72-4-3.61-4.55C1143.06,463,1140.63,461.54,1141.27,467.9Z"/><path class="cls-18" d="M1143.09,469.15c-.64,6.35,1.43,16.29-.51,16.51s-7.47-11-7.57-17.31,1.63-3.09,3.6-4.56C1140.18,462.62,1143.73,462.79,1143.09,469.15Z"/><path class="cls-19" d="M1142.69,474.66c-.68,6,2.15,11.34-.57,11-4.11-.52-6.95-2.51-7.78-5.21-1.07-3.47.57-8.07.48-11.87-.15-6.75,1.39-2,4-1.23S1143.37,468.62,1142.69,474.66Z"/><path class="cls-19" d="M1142,474.66c.67,6-2.13,11.48.57,11,5-.89,8.09-2.9,8.69-5.79.69-3.31-1.48-7.69-1.39-11.29.15-6.75-1.31-1.7-4-1.23C1143.43,467.78,1141.33,468.62,1142,474.66Z"/><path class="cls-14" d="M800.19,741c9,5.2,23.69,5.18,32.77-.06s9.12-13.71.1-18.92-23.69-5.18-32.77.06S791.17,735.75,800.19,741Z"/><path class="cls-15" d="M816.74,727.94c.17-19.26,1.53-45.44,1.53-45.44S824,695.86,824,703.16C824.14,723.23,816.74,727.94,816.74,727.94Z"/><path class="cls-16" d="M815.88,727.12c-.53-6.19-2.39-11.11-4.35-16.33-2.76-7.31-5.61-14.86-4.7-26.13l3.35.27c-.84,10.52,1.75,17.39,4.5,24.68,2,5.2,4,10.57,4.55,17.22Z"/><path class="cls-15" d="M817.56,723.3c-7.26-14.69-24.1-24.2-24.1-24.2a66.37,66.37,0,0,0,2.86,13.57c2.4,7.48,22.19,15.11,22.19,15.11S819.7,727.64,817.56,723.3Z"/><path class="cls-17" d="M810.36,668.72c-.64,6.36,1.29,17.49-.65,17.72s-7.46-11-7.57-17.32,1.72-4,3.6-4.55C808.57,663.79,811,662.36,810.36,668.72Z"/><path class="cls-18" d="M808.54,670c.63,6.35-1.43,16.29.51,16.51s7.46-11,7.57-17.32-1.63-3.08-3.6-4.55C811.45,663.44,807.9,663.61,808.54,670Z"/><path class="cls-19" d="M808.94,675.48c.67,6-2.16,11.34.57,11,4.11-.52,7-2.52,7.78-5.21,1.06-3.47-.57-8.07-.48-11.87.15-6.75-1.39-2-4-1.23S808.26,669.44,808.94,675.48Z"/><path class="cls-19" d="M809.62,675.48c-.68,6,2.13,11.48-.57,11-5-.89-8.09-2.9-8.69-5.79-.69-3.31,1.48-7.69,1.39-11.29-.15-6.75,1.31-1.7,4-1.23C808.19,668.59,810.3,669.44,809.62,675.48Z"/><path class="cls-15" d="M829.63,731.13c-11.38-17.37-14.54-16.07-14.54-16.07s5.78-7.56,10.95-2.41C838.21,724.78,829.63,731.13,829.63,731.13Z"/><path class="cls-16" d="M829.16,730.48c-.94-13.08-1.62-22.53,10.85-37.59L842.6,695c-11.61,14-11,22.44-10.08,35.2Z"/><path class="cls-16" d="M830.08,727.26c6.06-15.22,15.64-17.55,15.64-17.55a66.46,66.46,0,0,1-4.58,13.09c-3.34,7.1-16.61,9.47-16.61,9.47A7.66,7.66,0,0,0,830.08,727.26Z"/><path class="cls-20" d="M847.82,684.61c-4,5-9.76,8.17-8.53,9.69s9.65.79,14.14-3.67,1.59-4.09.6-5.78C852.54,682.33,851.8,679.61,847.82,684.61Z"/><path class="cls-21" d="M848.26,686.77c-4.89,4.11-7,9.22-8.52,8s-1-9.62,3.29-14.23,3.32-1.07,5.76-.75C850.72,680.07,853.15,682.66,848.26,686.77Z"/><path class="cls-22" d="M844.13,690.45c-4.7,3.85-3,6.17-4.72,4-2.58-3.24-3.23-6.65-1.94-9.16,1.66-3.23,2.67-1.93,5.26-4.71,4.59-4.94-1,3,.36,5.38S848.83,686.59,844.13,690.45Z"/><path class="cls-23" d="M843.64,690c-3.73,4.8-6.17,3.28-3.9,4.82,4.23,2.88,7.82,3.57,10.26,1.92,2.81-1.9.94-3.09,3.52-5.61,4.81-4.73-3.12,1.33-5.39-.22C846.1,689.49,847.36,685.17,843.64,690Z"/><path class="cls-16" d="M804.68,735.33c-11.39-17.37-27.57-18.52-27.57-18.52s4.69-6.16,10.94-2.41C813.61,729.73,804.68,735.33,804.68,735.33Z"/><path class="cls-16" d="M804.3,735.13c-2.1-5.83-2.35-11.36-2.59-16.72-.38-8.27-.73-16.08-7.8-24.47l2.57-2.17c7.81,9.26,8.21,18,8.59,26.49.23,5.1.47,10.38,2.4,15.73Z"/><path class="cls-15" d="M804.35,731.22c.46-16.37,9.15-30,9.15-30s.39,14.15-.3,22S807,737.07,807,737.07,804.22,736.06,804.35,731.22Z"/><path class="cls-20" d="M787.15,684.78c4.21,4.8,6.3,11.06,8,10.12s2.5-9.35-1.09-14.57-3.75-2.29-5.59-1.61C785.74,679.74,782.93,680,787.15,684.78Z"/><path class="cls-21" d="M789.35,684.74c3.18,5.54,7.83,8.49,6.38,9.8s-9.65-.67-13.42-5.76-.47-3.46.28-5.8C783.19,681.12,786.18,679.19,789.35,684.74Z"/><path class="cls-22" d="M792.23,689.45c3,5.31,5.54,4.06,3.12,5.36-3.64,2-7.12,2-9.36.28-2.88-2.2-1.42-3-3.7-6-4-5.4,2.76,1.48,5.36.6S789.27,684.15,792.23,689.45Z"/><path class="cls-23" d="M791.67,689.85c4.07,4.52,2.14,6.65,4.06,4.69,3.58-3.65,4.9-7.06,3.71-9.76-1.37-3.09-2.87-1.47-4.9-4.45-3.79-5.58.76,3.3-1.17,5.26C791.64,687.35,787.61,685.33,791.67,689.85Z"/><path class="cls-16" d="M817.68,740.68c-.16-19.27-4.18-39.42-4.18-39.42s-5.68,13.36-5.73,20.66C807.63,742,817.68,740.68,817.68,740.68Z"/><path class="cls-16" d="M818.55,739.85l-3.36-.29a53.16,53.16,0,0,1,3.51-14.81c1.92-5.39,3.74-10.47,2.89-21.06l3.35-.27c.92,11.31-1,16.73-3.07,22.46A50.18,50.18,0,0,0,818.55,739.85Z"/><path class="cls-15" d="M816.87,736c7.25-14.69,17-16.26,17-16.26a66.1,66.1,0,0,1-5.61,12.69c-3.89,6.82-12.33,8-12.33,8S814.73,740.37,816.87,736Z"/><path class="cls-17" d="M821.41,687.48c.64,6.36-1.29,17.49.65,17.72s7.46-11,7.57-17.32-1.72-4-3.6-4.55C823.2,682.56,820.77,681.12,821.41,687.48Z"/><path class="cls-18" d="M823.24,688.73c-.64,6.35,1.42,16.29-.52,16.51s-7.46-11-7.57-17.32,1.63-3.08,3.6-4.55C820.32,682.2,823.87,682.37,823.24,688.73Z"/><path class="cls-19" d="M822.84,694.24c-.68,6,2.15,11.34-.58,11-4.11-.52-7-2.52-7.78-5.21-1.06-3.47.57-8.07.49-11.87-.16-6.75,1.38-2,4-1.23S823.51,688.2,822.84,694.24Z"/><path class="cls-19" d="M822.15,694.24c.68,6-2.13,11.48.57,11,5-.89,8.09-2.9,8.69-5.79.69-3.31-1.47-7.69-1.39-11.29.16-6.75-1.31-1.7-4-1.23C823.58,687.35,821.47,688.2,822.15,694.24Z"/><path class="cls-24" d="M1030.14,236.45a135.32,135.32,0,0,1-2.26,20.81c-.23,2.92-2.66,9.27-3.86,11.65-1.36,2.62-2.69,5.58-4,8.47-5.3,11.78-10.31,24-15.27,36.12-10.13,24.26-20.1,48.7-30.58,72.84l-19.47-8Q962.55,358,971.08,338q7-16.49,14.31-32.87c5.54-12.07,11.09-24.08,17.14-36.13,1.56-3,3.06-6,4.87-9.2a22.59,22.59,0,0,0,1.62-3.45l.66-1.37c.21-.59.38-1.4.57-2.08,1.65-5.55,2.66-12,4-18.27a620.43,620.43,0,0,0,8.49-67.55c.28-3.57.52-7.13.75-10.69,1.86-26.32,3.48-52.71,4.18-79.11.77,26.4,1.77,52.82,2.22,79.28l.44,39.75C1030.24,209.62,1030.82,222.93,1030.14,236.45Z"/><path class="cls-24" d="M971.84,431.19,957,444.71c-11.21-12.27-21.72-24.92-31.9-38.18a216.36,216.36,0,0,1-14.49-21.4c-.56-.93-1.18-2.39-1.74-3.57a18.11,18.11,0,0,1-1.54-6.27l.17-5.78c.06-3.75.19-7.63.13-11.56a84.78,84.78,0,0,0-3.5-23.57,186,186,0,0,0-7.8-22.93,153.67,153.67,0,0,0-11.16-21.64,73.16,73.16,0,0,0-7.26-9.79c-2.73-2.87-5.69-6.18-9.83-6.76,4.22.26,7.53,3.39,10.52,6.09a93,93,0,0,1,8.22,9.29,166,166,0,0,1,13.68,20.75,191.49,191.49,0,0,1,10.7,21.69c.11.26.21.52.32.79,3.11,7.8,5.91,15.75,8.64,24a65.33,65.33,0,0,1,2.77,12.88c.34,2.12.28,4.63.46,6.51-.05-2,.53.29,1.48,1.41a206.65,206.65,0,0,0,14.66,18.16q4.74,5.53,9.64,11C956.66,414.34,964.34,422.75,971.84,431.19Z"/><path class="cls-24" d="M1083.45,369.67,1072,419.53l-.53,2.36-2.91.46-54,8.59c-7.54,7.48-14.65,15.38-21.57,23.45-7.43,8.75-14.77,17.59-20.41,28l-16.32-15.11c8.29-5.34,15.4-11.79,22.27-18.45l4.1-4c8.13-8.11,16-16.44,23.4-25.25l1.74-2.07,2.69-.15,55-2.91Z"/><path class="cls-24" d="M844.73,340.14c4.14,5.67,8.64,11.1,13,16.63l13.22,16.46h0L868,371.7l47.25-2.82v12.59L868,378.69l-2.08-.12-.81-1.42h0l-10.33-18.44C851.43,352.54,847.89,346.44,844.73,340.14Z"/><polygon class="cls-24" points="986.3 241.66 985.87 243.64 975 293.32 953.81 286.56 962.21 266.81 973.35 240.62 967.98 160.04 986.11 240.79 986.3 241.66"/><polygon class="cls-24" points="1043.59 419.17 1059.98 444.55 1057.67 443.15 1083.45 450.54 1056.64 450.07 1055.46 450.05 1054.33 448.68 1035.14 425.34 1043.59 419.17"/><polygon class="cls-24" points="1083.45 168.73 1063.65 209.4 1063.24 210.22 1062.03 210.97 1025.78 233.04 1020.14 223.26 1030.48 217.62 1056.69 203.32 1083.45 168.73"/><polygon class="cls-24" points="997.75 296.06 1030.87 296.16 1026.28 297.89 1051.2 281.12 1052.28 280.4 1052.87 280.38 1087.41 279.57 1053.54 286.4 1055.21 285.66 1035.47 308.31 1033.96 310.04 1030.87 310.05 997.75 310.14 997.75 296.06"/><polygon class="cls-24" points="937.08 148.55 936.52 149.57 928.88 163.42 928.18 200.21 928.1 204.36 918.49 204 919.11 192.88 919.74 181.69 920.83 162.19 920.89 161.13 921.36 160.34 929.55 146.52 931.65 117.34 933.24 95.37 937.01 147.69 937.08 148.55"/><path class="cls-24" d="M1018.62,588.37,1000,599.2l-16.55,9.62-5,2.89-11.75,6.82-2.78,1.62-.21.12-30-17.29-7.28-4.2-14.21-8.2c20-3.9,28.74-22.65,28.74-22.65,4-14.42,5.45-28.84,6.18-43.25l.71-21.63.4-21.63c.29-28.84-.24,10.39,0-18.45s1.31-57.68,2-86.52c1-28.42,1.94-56.85,3.45-85.28-3.47-9.87-7.61-19.31-12-28.71l-14.46-31.62Q920,215,913.12,199c-4.59-10.7-9-21.45-12.69-32.81-.9-2.85-1.77-5.72-2.48-8.82a37.34,37.34,0,0,1-.86-5c-.18-2.29-.08-3.41-.1-4.81,0-5.55-.16-11.36-.35-17.08-.41-11.51-1-23-1.55-34.59-1-23.08.5-29.44-.3-52.58,3.76,22.84,4.32,29,7.41,52,1.44,11.48,2.86,23,4.13,34.5.62,5.79,1.24,11.51,1.65,17.5.09,1.49.13,3.27.25,3.86a30.88,30.88,0,0,0,.8,3.47c.7,2.5,1.63,5.12,2.61,7.73q3.84,9.67,8.1,19.36c1.2,2.73,2.42,5.45,3.66,8.18q2.36,5.19,4.78,10.34C932,208.44,936,216.64,940,224.78c5.11,10.31,10.49,20.5,15.84,30.71,2.69,5.09,5.47,10.14,8.44,15.1s6.11,9.81,9.53,14.49l1,1.72.16,3.14c.07,1.26.14,2.52.2,3.78,1.44,27.57,2.38,55.16,3.31,82.73.68,28.84,1.75,57.68,2,86.52s-.3-10.39,0,18.45l.39,21.63.71,21.63c.73,14.41,2.17,28.83,6.18,43.25C999.05,585.25,1018.62,588.37,1018.62,588.37Z"/><path class="cls-9" d="M1018.62,588.37,1000,599.2a64.91,64.91,0,0,1-12.63-2.06l-3.92,11.68-5,2.89c-1.53-11.53-4.33-32.41-6.61-48.13l-5.14,54.95-2.78,1.62-7.68-29.87s-6.16,9.28-22.48,12.7l-7.28-4.2c6.81-4.36,15.53-12.15,22.58-25.67,13.73-26.31,7.18-116.33,7.18-116.33s5.57,37.39,5.3,57.22c0,0,3.6-12.51,2.42-63.46s11-157.22,11-157.22l.21.4c1.44,27.57,2.38,55.16,3.31,82.73.68,28.84,1.75,57.68,2,86.52s-.3-10.39,0,18.45l.39,21.63.71,21.63c.73,14.41,2.17,28.83,6.18,43.25C999.05,585.25,1018.62,588.37,1018.62,588.37Z"/><path class="cls-9" d="M949.14,405.89v13.28L915.3,375.93c3-11.07-.4-29.85-4.13-44.85.11.26.21.52.32.79,3.11,7.8,5.91,15.75,8.64,24a65.33,65.33,0,0,1,2.77,12.88c.34,2.12.28,4.63.46,6.51-.05-2,.53.29,1.48,1.41a206.65,206.65,0,0,0,14.66,18.16Q944.24,400.4,949.14,405.89Z"/><path class="cls-9" d="M1083.45,369.67l-15.73,44.61v0l-1.31,3.7-56.69,8-33.19,37.81,2-15,4.1-4c8.13-8.11,16-16.44,23.4-25.25l1.74-2.07,2.69-.15,55-2.91Z"/><polygon class="cls-9" points="979.96 243.59 970.06 275.62 962.21 266.81 973.35 240.62 967.98 160.04 979.96 243.59"/><path class="cls-9" d="M1024.58,192.1c-.39,25.55-6,66.74-6,66.74l-42.1,85.82L971.08,338q7-16.49,14.31-32.87c5.54-12.07,11.09-24.08,17.14-36.13,1.56-3,3.06-6,4.87-9.2a22.59,22.59,0,0,0,1.62-3.45l.66-1.37c.21-.59.38-1.4.57-2.08,1.65-5.55,2.66-12,4-18.27a620.43,620.43,0,0,0,8.49-67.55A172.62,172.62,0,0,1,1024.58,192.1Z"/><polygon class="cls-9" points="1083.45 168.73 1057.76 207.35 1030.48 224.14 1030.48 217.63 1030.48 217.62 1056.69 203.32 1083.45 168.73"/><path class="cls-15" d="M546.69,489.09c3,5.82,2.12,9.19-.18,10.23s-5.24-.52-8-6a21.53,21.53,0,0,1-2-8.4,32.53,32.53,0,0,1,0-4.39,20.63,20.63,0,0,1,4,2A17.91,17.91,0,0,1,546.69,489.09Z"/><path class="cls-15" d="M550.4,511.51c4,3.16,5,6.67,4.05,9.26s-3.36,3.32-7.34.12a18.28,18.28,0,0,1-4.54-6.52,35.73,35.73,0,0,1-1.6-4.11S546.34,508.36,550.4,511.51Z"/><path class="cls-15" d="M551.48,505c-.88,5,.62,8.22,3,9.7s4.79.61,5.78-4.42c.49-2.52-.16-5.66-1-8.17a32.4,32.4,0,0,0-1.79-4.38S552.34,500,551.48,505Z"/><path class="cls-15" d="M558.21,533c4.28,3.69,5,7.68,3.77,10.41s-4,3.19-8.05-.46c-2-1.81-3.47-4.73-4.49-7.24a41.09,41.09,0,0,1-1.53-4.58S553.92,529.32,558.21,533Z"/><path class="cls-15" d="M559.84,526.13c-1.23,5.46.23,9.06,2.77,10.86s5.26,1.08,6.64-4.5c.68-2.79.11-6.34-.65-9.12a36.56,36.56,0,0,0-1.68-4.84S561.07,520.67,559.84,526.13Z"/><path class="cls-15" d="M564.15,555.05c3.68,4.26,3.62,8.46,1.79,10.81s-4.59,2.12-7.79-2a20.4,20.4,0,0,1-3.08-7.43c-.57-2.45-.82-4.45-.82-4.45a13.84,13.84,0,0,1,3.56,0A9.71,9.71,0,0,1,564.15,555.05Z"/><path class="cls-15" d="M566.7,548.48c-1.87,5.3-1.06,9,1.12,11.23s5,2.15,7.32-3.33c1.15-2.75,1.05-6.54.6-9.56a33.38,33.38,0,0,0-1.22-5.29A12.64,12.64,0,0,0,571.3,543,10.78,10.78,0,0,0,566.7,548.48Z"/><path class="cls-15" d="M565.4,579.69c1.93,4.27.93,7.61-1.07,9.09s-4.19.69-5.78-3.42a17.06,17.06,0,0,1-.73-6.71,36.9,36.9,0,0,1,.38-3.71,11.33,11.33,0,0,1,2.85.79A8,8,0,0,1,565.4,579.69Z"/><path class="cls-15" d="M569,574.6c-2.7,3.83-2.91,6.95-1.67,9.26s3.52,2.85,6.62-1c1.54-1.93,2.36-5,2.67-7.58a27,27,0,0,0,.2-4.62,10.65,10.65,0,0,0-2.91.49A9.23,9.23,0,0,0,569,574.6Z"/><path class="cls-15" d="M543.42,494.28l1.13-.55c4,8.15,7.39,16.64,9.87,23.12,3.19,8.39,6,16,8.3,23.73a111.64,111.64,0,0,1,4.68,24.67,85.28,85.28,0,0,1-2.12,25l-1.22-.29a83.83,83.83,0,0,0,2.09-24.61,110.31,110.31,0,0,0-4.63-24.38c-2.27-7.73-5.09-15.28-8.27-23.64C550.78,510.84,547.43,502.39,543.42,494.28Z"/><path class="cls-16" d="M614.87,480.14c-3,5.82-2.13,9.19.18,10.23s5.23-.52,8-6a21.45,21.45,0,0,0,2-8.39,32.53,32.53,0,0,0,0-4.39,20.73,20.73,0,0,0-4,2A17.68,17.68,0,0,0,614.87,480.14Z"/><path class="cls-16" d="M611.16,502.56c-4,3.16-5,6.67-4.06,9.26s3.36,3.31,7.34.12a18.26,18.26,0,0,0,4.55-6.53,33.72,33.72,0,0,0,1.59-4.11S615.22,499.41,611.16,502.56Z"/><path class="cls-16" d="M610.08,496.05c.88,5-.62,8.21-3,9.69s-4.79.62-5.78-4.41a17.64,17.64,0,0,1,1-8.18,33.23,33.23,0,0,1,1.78-4.38S609.21,491,610.08,496.05Z"/><path class="cls-16" d="M603.34,524c-4.28,3.68-5.05,7.68-3.77,10.41s4,3.18,8.06-.46c2-1.82,3.46-4.73,4.48-7.24a38.5,38.5,0,0,0,1.53-4.59S607.63,520.37,603.34,524Z"/><path class="cls-16" d="M601.71,517.18c1.24,5.46-.23,9.06-2.77,10.86s-5.25,1.07-6.64-4.51c-.68-2.79-.11-6.33.65-9.11a36.56,36.56,0,0,1,1.68-4.84S600.48,511.72,601.71,517.18Z"/><path class="cls-16" d="M597.4,546.1c-3.67,4.26-3.62,8.46-1.79,10.81s4.59,2.11,7.79-2a20.22,20.22,0,0,0,3.08-7.43,44.65,44.65,0,0,0,.82-4.45,14.08,14.08,0,0,0-3.56,0A9.73,9.73,0,0,0,597.4,546.1Z"/><path class="cls-16" d="M594.85,539.53c1.88,5.3,1.06,9-1.11,11.23s-5,2.15-7.32-3.33c-1.15-2.75-1.06-6.55-.6-9.56a33.09,33.09,0,0,1,1.21-5.3,13.06,13.06,0,0,1,3.23,1.48A10.76,10.76,0,0,1,594.85,539.53Z"/><path class="cls-16" d="M596.15,570.74c-1.93,4.27-.93,7.61,1.08,9.08s4.18.7,5.77-3.42a16.83,16.83,0,0,0,.73-6.7c-.11-2.09-.37-3.71-.37-3.71a11.34,11.34,0,0,0-2.86.79A8,8,0,0,0,596.15,570.74Z"/><path class="cls-16" d="M592.56,565.64c2.7,3.84,2.91,7,1.68,9.27s-3.52,2.85-6.63-1c-1.54-1.93-2.35-5-2.67-7.57a28.37,28.37,0,0,1-.2-4.63,11,11,0,0,1,2.92.5A9.22,9.22,0,0,1,592.56,565.64Z"/><path class="cls-16" d="M618.13,485.33l-1.12-.55c-4,8.15-7.4,16.64-9.88,23.12-3.19,8.38-6,16-8.3,23.73a111.67,111.67,0,0,0-4.68,24.66,85.66,85.66,0,0,0,2.12,25l1.22-.29a84.51,84.51,0,0,1-2.09-24.61A111,111,0,0,1,600,532c2.28-7.73,5.09-15.28,8.27-23.64C610.77,501.89,614.12,493.44,618.13,485.33Z"/><path class="cls-16" d="M1448.35,543.19c-3,5.82-2.13,9.19.18,10.23s5.23-.52,8-6a21.51,21.51,0,0,0,2-8.4,32.53,32.53,0,0,0,0-4.39,21.49,21.49,0,0,0-4,2A17.91,17.91,0,0,0,1448.35,543.19Z"/><path class="cls-16" d="M1444.64,565.61c-4.05,3.16-5,6.67-4.06,9.26s3.36,3.32,7.34.12a18.22,18.22,0,0,0,4.55-6.52,35.73,35.73,0,0,0,1.6-4.11S1448.7,562.46,1444.64,565.61Z"/><path class="cls-16" d="M1443.56,559.1c.88,5-.62,8.22-3,9.7s-4.79.61-5.78-4.42a17.58,17.58,0,0,1,1-8.17,33.23,33.23,0,0,1,1.78-4.38S1442.7,554.1,1443.56,559.1Z"/><path class="cls-16" d="M1436.82,587.09c-4.28,3.69-5,7.69-3.76,10.41s4,3.19,8-.46c2-1.81,3.47-4.73,4.48-7.24a38.72,38.72,0,0,0,1.53-4.58S1441.11,583.42,1436.82,587.09Z"/><path class="cls-16" d="M1435.19,580.23c1.24,5.46-.23,9.06-2.77,10.86s-5.25,1.08-6.64-4.5c-.68-2.79-.11-6.34.66-9.12a34.91,34.91,0,0,1,1.68-4.84S1434,574.77,1435.19,580.23Z"/><path class="cls-16" d="M1430.88,609.15c-3.67,4.26-3.62,8.46-1.79,10.82s4.59,2.11,7.79-2a20.22,20.22,0,0,0,3.08-7.43,44.65,44.65,0,0,0,.82-4.45,13.84,13.84,0,0,0-3.56,0A9.71,9.71,0,0,0,1430.88,609.15Z"/><path class="cls-16" d="M1428.33,602.58c1.88,5.3,1.06,9-1.11,11.23s-5,2.15-7.32-3.33c-1.15-2.75-1.05-6.54-.6-9.56a32.78,32.78,0,0,1,1.21-5.29,12.78,12.78,0,0,1,3.23,1.47A10.76,10.76,0,0,1,1428.33,602.58Z"/><path class="cls-16" d="M1429.63,633.79c-1.93,4.27-.93,7.61,1.08,9.09s4.19.69,5.77-3.42a16.88,16.88,0,0,0,.73-6.71,35.38,35.38,0,0,0-.37-3.71,11.46,11.46,0,0,0-2.86.79A8,8,0,0,0,1429.63,633.79Z"/><path class="cls-16" d="M1426,628.7c2.7,3.83,2.91,6.95,1.68,9.26s-3.52,2.86-6.63-1c-1.54-1.93-2.35-5-2.67-7.58a28.24,28.24,0,0,1-.2-4.62,10.69,10.69,0,0,1,2.92.49A9.21,9.21,0,0,1,1426,628.7Z"/><path class="cls-16" d="M1451.61,548.38l-1.12-.55c-4,8.15-7.39,16.64-9.87,23.12-3.19,8.39-6,16-8.31,23.73a111,111,0,0,0-4.67,24.67,84.91,84.91,0,0,0,2.12,25L1431,644a84.61,84.61,0,0,1-2.09-24.62,110.89,110.89,0,0,1,4.63-24.38c2.28-7.73,5.1-15.28,8.27-23.64C1444.25,564.94,1447.6,556.49,1451.61,548.38Z"/><path class="cls-16" d="M920.92,797.27c3,5.82,2.13,9.19-.18,10.23s-5.23-.52-8-6a21.51,21.51,0,0,1-2-8.4,32.53,32.53,0,0,1,0-4.39,20.73,20.73,0,0,1,3.95,2A17.83,17.83,0,0,1,920.92,797.27Z"/><path class="cls-16" d="M924.63,819.69c4,3.16,5,6.67,4.06,9.26s-3.36,3.32-7.34.12a18.31,18.31,0,0,1-4.55-6.52,35.73,35.73,0,0,1-1.6-4.11S920.57,816.54,924.63,819.69Z"/><path class="cls-16" d="M925.71,813.18c-.88,5,.62,8.22,3,9.7s4.79.61,5.78-4.42a17.58,17.58,0,0,0-1-8.17,32.53,32.53,0,0,0-1.78-4.38S926.57,808.17,925.71,813.18Z"/><path class="cls-16" d="M932.45,841.17c4.28,3.69,5,7.68,3.76,10.41s-4,3.18-8.05-.46c-2-1.82-3.47-4.73-4.48-7.24a38.5,38.5,0,0,1-1.53-4.59S928.16,837.5,932.45,841.17Z"/><path class="cls-16" d="M934.08,834.31c-1.24,5.46.23,9.06,2.76,10.86s5.26,1.08,6.65-4.5c.68-2.79.11-6.34-.66-9.12a34.91,34.91,0,0,0-1.68-4.84S935.3,828.85,934.08,834.31Z"/><path class="cls-16" d="M938.39,863.23c3.67,4.26,3.62,8.46,1.79,10.81s-4.59,2.11-7.79-2a20.22,20.22,0,0,1-3.08-7.43,44.65,44.65,0,0,1-.82-4.45,13.84,13.84,0,0,1,3.56,0A9.71,9.71,0,0,1,938.39,863.23Z"/><path class="cls-16" d="M940.94,856.66c-1.88,5.3-1.06,9,1.11,11.23s5,2.15,7.32-3.33c1.15-2.75,1-6.54.6-9.56a32.78,32.78,0,0,0-1.21-5.29,12.78,12.78,0,0,0-3.23,1.47A10.76,10.76,0,0,0,940.94,856.66Z"/><path class="cls-16" d="M939.64,887.87c1.93,4.27.93,7.61-1.08,9.09s-4.19.69-5.77-3.43a16.83,16.83,0,0,1-.73-6.7,35.38,35.38,0,0,1,.37-3.71,11.46,11.46,0,0,1,2.86.79A8,8,0,0,1,939.64,887.87Z"/><path class="cls-16" d="M943.23,882.78c-2.7,3.83-2.91,7-1.68,9.26s3.52,2.85,6.63-1c1.54-1.93,2.35-5,2.67-7.57a28.24,28.24,0,0,0,.2-4.62,10.69,10.69,0,0,0-2.92.49A9.21,9.21,0,0,0,943.23,882.78Z"/><path class="cls-16" d="M917.66,802.46l1.12-.55c4,8.15,7.39,16.64,9.87,23.12,3.19,8.39,6,16,8.31,23.73a111,111,0,0,1,4.67,24.66,85,85,0,0,1-2.12,25l-1.21-.29a84.51,84.51,0,0,0,2.09-24.61,110.79,110.79,0,0,0-4.63-24.38c-2.28-7.73-5.1-15.28-8.27-23.64C925,819,921.67,810.57,917.66,802.46Z"/><path class="cls-15" d="M987.2,807.46c-3,5.82-2.13,9.19.18,10.23s5.23-.52,8-6a21.45,21.45,0,0,0,2-8.39,32.53,32.53,0,0,0,0-4.39,20.63,20.63,0,0,0-4,2A17.73,17.73,0,0,0,987.2,807.46Z"/><path class="cls-15" d="M983.49,829.88c-4,3.16-5,6.67-4.06,9.26s3.36,3.31,7.34.12a18.23,18.23,0,0,0,4.54-6.53,34.94,34.94,0,0,0,1.6-4.11S987.54,826.73,983.49,829.88Z"/><path class="cls-15" d="M982.4,823.37c.89,5-.62,8.21-3,9.69s-4.79.62-5.78-4.41c-.49-2.52.16-5.66,1-8.18a31.68,31.68,0,0,1,1.78-4.38S981.54,818.36,982.4,823.37Z"/><path class="cls-15" d="M975.67,851.36c-4.28,3.68-5,7.68-3.77,10.41s4,3.18,8.06-.46c2-1.82,3.46-4.73,4.48-7.24a40.82,40.82,0,0,0,1.53-4.59S980,847.69,975.67,851.36Z"/><path class="cls-15" d="M974,844.5c1.24,5.46-.23,9.06-2.77,10.86s-5.26,1.07-6.64-4.51c-.68-2.79-.11-6.33.65-9.11A36.56,36.56,0,0,1,967,836.9S972.81,839,974,844.5Z"/><path class="cls-15" d="M969.73,873.42c-3.67,4.26-3.62,8.46-1.79,10.81s4.59,2.11,7.79-2a20.4,20.4,0,0,0,3.08-7.43,44.65,44.65,0,0,0,.82-4.45,14.08,14.08,0,0,0-3.56,0A9.77,9.77,0,0,0,969.73,873.42Z"/><path class="cls-15" d="M967.18,866.85c1.87,5.3,1.06,9-1.12,11.23s-5,2.15-7.32-3.33c-1.15-2.75-1-6.55-.59-9.56a33.09,33.09,0,0,1,1.21-5.3,13.06,13.06,0,0,1,3.23,1.48A10.81,10.81,0,0,1,967.18,866.85Z"/><path class="cls-15" d="M968.48,898.06c-1.93,4.27-.93,7.61,1.08,9.08s4.18.7,5.77-3.42a17,17,0,0,0,.73-6.7,36.9,36.9,0,0,0-.38-3.71,11.33,11.33,0,0,0-2.85.79A7.94,7.94,0,0,0,968.48,898.06Z"/><path class="cls-15" d="M964.89,893c2.7,3.84,2.91,6.95,1.68,9.27s-3.53,2.85-6.63-1c-1.54-1.93-2.35-5-2.67-7.57a27.08,27.08,0,0,1-.2-4.63,11,11,0,0,1,2.92.5A9.22,9.22,0,0,1,964.89,893Z"/><path class="cls-15" d="M990.46,812.65l-1.13-.55c-4,8.15-7.39,16.64-9.87,23.12-3.19,8.38-6,16-8.3,23.73a111.67,111.67,0,0,0-4.68,24.66,85.66,85.66,0,0,0,2.12,25l1.22-.29a84.17,84.17,0,0,1-2.09-24.61,110.39,110.39,0,0,1,4.63-24.39c2.28-7.73,5.09-15.27,8.27-23.64C983.1,829.21,986.45,820.76,990.46,812.65Z"/><g class="cls-1"><polygon class="cls-11" points="633.76 585.79 633.73 590.94 620.62 598.56 620.64 593.41 633.76 585.79"/><polygon class="cls-12" points="620.64 593.41 620.62 598.56 607.41 590.94 607.43 585.79 620.64 593.41"/><polygon class="cls-13" points="633.76 585.79 620.64 593.41 607.43 585.79 620.55 578.17 633.76 585.79"/></g><g class="cls-1"><polygon class="cls-11" points="520.9 621.53 520.88 626.68 507.76 634.31 507.79 629.16 520.9 621.53"/><polygon class="cls-12" points="507.79 629.16 507.76 634.31 494.56 626.68 494.58 621.53 507.79 629.16"/><polygon class="cls-13" points="520.9 621.53 507.79 629.16 494.58 621.53 507.7 613.91 520.9 621.53"/></g><g class="cls-1"><polygon class="cls-11" points="582.73 631.73 582.71 636.88 569.59 644.5 569.61 639.36 582.73 631.73"/><polygon class="cls-12" points="569.61 639.36 569.59 644.5 556.38 636.88 556.41 631.73 569.61 639.36"/><polygon class="cls-13" points="582.73 631.73 569.61 639.36 556.41 631.73 569.52 624.11 582.73 631.73"/></g><g class="cls-1"><polygon class="cls-11" points="616.95 698.68 616.92 703.83 603.8 711.46 603.83 706.31 616.95 698.68"/><polygon class="cls-12" points="603.83 706.31 603.8 711.46 590.6 703.83 590.63 698.68 603.83 706.31"/><polygon class="cls-13" points="616.95 698.68 603.83 706.31 590.63 698.68 603.74 691.06 616.95 698.68"/></g><g class="cls-1"><polygon class="cls-11" points="792.67 470.34 792.64 475.49 779.53 483.11 779.55 477.96 792.67 470.34"/><polygon class="cls-12" points="779.55 477.96 779.53 483.11 766.33 475.49 766.35 470.34 779.55 477.96"/><polygon class="cls-13" points="792.67 470.34 779.55 477.96 766.35 470.34 779.47 462.71 792.67 470.34"/></g><g class="cls-1"><polygon class="cls-11" points="826.88 537.29 826.86 542.44 813.74 550.06 813.77 544.91 826.88 537.29"/><polygon class="cls-12" points="813.77 544.91 813.74 550.06 800.54 542.44 800.57 537.29 813.77 544.91"/><polygon class="cls-13" points="826.88 537.29 813.77 544.91 800.57 537.29 813.68 529.67 826.88 537.29"/></g><g class="cls-1"><polygon class="cls-11" points="905.31 741.85 905.28 747 892.17 754.62 892.19 749.47 905.31 741.85"/><polygon class="cls-12" points="892.19 749.47 892.17 754.62 878.96 747 878.99 741.85 892.19 749.47"/><polygon class="cls-13" points="905.31 741.85 892.19 749.47 878.99 741.85 892.1 734.22 905.31 741.85"/></g><g class="cls-1"><polygon class="cls-11" points="694.92 739.27 694.9 744.42 681.78 752.04 681.81 746.89 694.92 739.27"/><polygon class="cls-12" points="681.81 746.89 681.78 752.04 668.58 744.42 668.6 739.27 681.81 746.89"/><polygon class="cls-13" points="694.92 739.27 681.81 746.89 668.6 739.27 681.72 731.65 694.92 739.27"/></g><g class="cls-1"><polygon class="cls-11" points="905.31 858.84 905.28 863.99 892.17 871.61 892.19 866.46 905.31 858.84"/><polygon class="cls-12" points="892.19 866.46 892.17 871.61 878.96 863.99 878.99 858.84 892.19 866.46"/><polygon class="cls-13" points="905.31 858.84 892.19 866.46 878.99 858.84 892.1 851.22 905.31 858.84"/></g><g class="cls-1"><polygon class="cls-11" points="1314.62 668.02 1314.6 673.17 1301.48 680.79 1301.5 675.64 1314.62 668.02"/><polygon class="cls-12" points="1301.5 675.64 1301.48 680.79 1288.28 673.17 1288.3 668.02 1301.5 675.64"/><polygon class="cls-13" points="1314.62 668.02 1301.5 675.64 1288.3 668.02 1301.42 660.39 1314.62 668.02"/></g><g class="cls-1"><polygon class="cls-11" points="1327.79 581.81 1327.77 586.96 1314.65 594.58 1314.68 589.43 1327.79 581.81"/><polygon class="cls-12" points="1314.68 589.43 1314.65 594.58 1301.45 586.96 1301.47 581.81 1314.68 589.43"/><polygon class="cls-13" points="1327.79 581.81 1314.68 589.43 1301.47 581.81 1314.59 574.18 1327.79 581.81"/></g><g class="cls-1"><polygon class="cls-11" points="1081.08 532.07 1081.06 537.22 1067.94 544.85 1067.97 539.7 1081.08 532.07"/><polygon class="cls-12" points="1067.97 539.7 1067.94 544.85 1054.74 537.22 1054.76 532.07 1067.97 539.7"/><polygon class="cls-13" points="1081.08 532.07 1067.97 539.7 1054.76 532.07 1067.88 524.45 1081.08 532.07"/></g><g class="cls-1"><polygon class="cls-11" points="966.62 803.88 966.6 809.03 953.48 816.65 953.51 811.5 966.62 803.88"/><polygon class="cls-12" points="953.51 811.5 953.48 816.65 940.28 809.03 940.3 803.88 953.51 811.5"/><polygon class="cls-13" points="966.62 803.88 953.51 811.5 940.3 803.88 953.42 796.25 966.62 803.88"/></g><g class="cls-1"><polygon class="cls-11" points="1081.12 837.18 1081.09 842.33 1067.97 849.95 1068 844.8 1081.12 837.18"/><polygon class="cls-12" points="1068 844.8 1067.97 849.95 1054.77 842.33 1054.8 837.18 1068 844.8"/><polygon class="cls-13" points="1081.12 837.18 1068 844.8 1054.8 837.18 1067.91 829.55 1081.12 837.18"/></g><g class="cls-1"><polygon class="cls-11" points="1211.42 528.1 1211.4 533.25 1198.28 540.88 1198.3 535.73 1211.42 528.1"/><polygon class="cls-12" points="1198.3 535.73 1198.28 540.88 1185.08 533.25 1185.1 528.1 1198.3 535.73"/><polygon class="cls-13" points="1211.42 528.1 1198.3 535.73 1185.1 528.1 1198.22 520.48 1211.42 528.1"/></g><path class="cls-14" d="M1363.82,656.88c9,5.2,23.69,5.18,32.77-.06s9.12-13.71.1-18.92-23.69-5.18-32.76.06S1354.8,651.67,1363.82,656.88Z"/><path class="cls-15" d="M1380.37,643.86c.17-19.26,1.54-45.44,1.54-45.44s5.67,13.36,5.72,20.66C1387.77,639.15,1380.37,643.86,1380.37,643.86Z"/><path class="cls-16" d="M1379.51,643c-.53-6.19-2.39-11.11-4.35-16.33-2.76-7.31-5.61-14.87-4.7-26.13l3.35.27c-.84,10.51,1.75,17.39,4.5,24.67,2,5.2,4,10.58,4.55,17.23Z"/><path class="cls-15" d="M1381.19,639.22c-7.26-14.69-24.1-24.2-24.1-24.2a66.37,66.37,0,0,0,2.86,13.57c2.4,7.48,22.19,15.11,22.19,15.11S1383.33,643.56,1381.19,639.22Z"/><path class="cls-17" d="M1374,584.64c-.64,6.36,1.3,17.49-.65,17.72s-7.46-11-7.57-17.32,1.72-4,3.61-4.56C1372.2,579.71,1374.63,578.28,1374,584.64Z"/><path class="cls-18" d="M1372.17,585.88c.64,6.36-1.43,16.29.51,16.52s7.47-11,7.57-17.32-1.63-3.08-3.6-4.55C1375.08,579.36,1371.53,579.53,1372.17,585.88Z"/><path class="cls-19" d="M1372.57,591.4c.68,6-2.15,11.34.57,11,4.11-.52,6.95-2.52,7.78-5.22,1.07-3.46-.57-8.07-.48-11.86.15-6.75-1.39-2-4-1.23S1371.89,585.36,1372.57,591.4Z"/><path class="cls-19" d="M1373.25,591.4c-.67,6,2.13,11.47-.57,11-5-.89-8.09-2.9-8.69-5.79-.69-3.31,1.48-7.69,1.39-11.29-.15-6.75,1.31-1.7,4-1.23C1371.83,584.51,1373.93,585.36,1373.25,591.4Z"/><path class="cls-15" d="M1393.27,647.05c-11.39-17.37-14.55-16.07-14.55-16.07s5.78-7.56,11-2.41C1401.84,640.7,1393.27,647.05,1393.27,647.05Z"/><path class="cls-16" d="M1392.8,646.4c-1-13.08-1.63-22.53,10.84-37.59l2.59,2.15c-11.6,14-11,22.44-10.08,35.2Z"/><path class="cls-16" d="M1393.71,643.18c6.06-15.22,15.65-17.55,15.65-17.55a66.14,66.14,0,0,1-4.59,13.09c-3.33,7.1-16.61,9.47-16.61,9.47A7.66,7.66,0,0,0,1393.71,643.18Z"/><path class="cls-20" d="M1411.46,600.53c-4,5-9.77,8.17-8.53,9.69s9.64.79,14.13-3.67,1.59-4.1.6-5.78C1416.17,598.25,1415.43,595.53,1411.46,600.53Z"/><path class="cls-21" d="M1411.89,602.69c-4.89,4.11-7,9.21-8.52,8s-1-9.62,3.29-14.23,3.32-1.07,5.76-.75C1414.36,596,1416.78,598.58,1411.89,602.69Z"/><path class="cls-22" d="M1407.76,606.37c-4.7,3.85-3,6.17-4.72,4-2.58-3.24-3.23-6.65-1.94-9.16,1.66-3.23,2.68-1.93,5.26-4.71,4.6-4.94-1,3,.37,5.37S1412.46,602.51,1407.76,606.37Z"/><path class="cls-23" d="M1407.27,605.89c-3.73,4.8-6.17,3.28-3.9,4.82,4.23,2.88,7.82,3.57,10.27,1.91,2.8-1.89.94-3.08,3.51-5.6,4.82-4.73-3.12,1.33-5.39-.22C1409.73,605.41,1411,601.09,1407.27,605.89Z"/><path class="cls-16" d="M1368.31,651.25c-11.39-17.37-27.57-18.53-27.57-18.53s4.69-6.16,11-2.4C1377.24,645.65,1368.31,651.25,1368.31,651.25Z"/><path class="cls-16" d="M1367.93,651.05c-2.1-5.83-2.35-11.36-2.59-16.72-.37-8.27-.73-16.08-7.8-24.47l2.57-2.17c7.81,9.26,8.21,18,8.59,26.49.23,5.1.47,10.38,2.4,15.73Z"/><path class="cls-15" d="M1368,647.14c.46-16.37,9.15-30,9.15-30s.39,14.15-.3,22-6.16,13.84-6.16,13.84S1367.85,652,1368,647.14Z"/><path class="cls-20" d="M1350.78,600.7c4.21,4.8,6.31,11.06,8,10.11s2.5-9.34-1.09-14.56-3.75-2.29-5.58-1.61C1349.37,595.65,1346.56,595.9,1350.78,600.7Z"/><path class="cls-21" d="M1353,600.65c3.18,5.55,7.83,8.5,6.38,9.81s-9.65-.67-13.42-5.76-.47-3.46.28-5.8C1346.82,597,1349.81,595.11,1353,600.65Z"/><path class="cls-22" d="M1355.86,605.37c3,5.31,5.54,4.06,3.12,5.36-3.64,2-7.11,2-9.36.28-2.88-2.2-1.42-3-3.69-6-4-5.4,2.75,1.47,5.35.6S1352.9,600.06,1355.86,605.37Z"/><path class="cls-23" d="M1355.3,605.77c4.07,4.52,2.14,6.65,4.06,4.69,3.58-3.65,4.9-7.06,3.71-9.76-1.37-3.09-2.87-1.47-4.89-4.45-3.8-5.58.75,3.3-1.18,5.26C1355.27,603.27,1351.24,601.25,1355.3,605.77Z"/><path class="cls-16" d="M1381.32,656.6c-.17-19.27-4.19-39.42-4.19-39.42s-5.67,13.36-5.72,20.66C1371.27,657.91,1381.32,656.6,1381.32,656.6Z"/><path class="cls-16" d="M1382.18,655.77l-3.36-.29a53.16,53.16,0,0,1,3.51-14.81c1.93-5.39,3.74-10.47,2.89-21.06l3.36-.27c.91,11.31-1,16.73-3.08,22.46A50.53,50.53,0,0,0,1382.18,655.77Z"/><path class="cls-15" d="M1380.5,652c7.25-14.69,17-16.26,17-16.26a66.1,66.1,0,0,1-5.61,12.69c-3.88,6.82-12.33,8.05-12.33,8.05S1378.36,656.29,1380.5,652Z"/><path class="cls-17" d="M1385,603.4c.64,6.36-1.29,17.49.65,17.72s7.47-11,7.57-17.32-1.72-4-3.6-4.55C1386.83,598.47,1384.41,597,1385,603.4Z"/><path class="cls-18" d="M1386.87,604.64c-.64,6.36,1.43,16.29-.52,16.52s-7.46-11-7.57-17.32,1.63-3.08,3.61-4.55C1384,598.12,1387.51,598.29,1386.87,604.64Z"/><path class="cls-19" d="M1386.47,610.16c-.68,6,2.15,11.34-.58,11-4.11-.52-7-2.52-7.78-5.21-1.06-3.47.57-8.08.49-11.87-.16-6.75,1.38-2,4-1.23S1387.15,604.12,1386.47,610.16Z"/><path class="cls-19" d="M1385.78,610.16c.68,6-2.13,11.47.57,11,5-.89,8.09-2.9,8.69-5.79.69-3.31-1.47-7.69-1.39-11.29.16-6.75-1.3-1.7-4-1.23C1387.21,603.27,1385.1,604.12,1385.78,610.16Z"/><polygon class="cls-15" points="792.75 212.96 861.02 173.54 861.02 95.28 792.75 134.7 792.75 212.96"/><polygon class="cls-13" points="1136.59 166.47 1068.32 127.05 1068.32 48.79 1136.59 88.2 1136.59 166.47"/><text class="cls-25" transform="translate(885.58 680.79)">9 yd</text><text class="cls-25" transform="translate(1025.65 657.84) scale(0.58)">2</text><text class="cls-26" transform="matrix(0.87, -0.5, 0.87, 0.5, 1268.27, 973.7)">9 = 3 yd</text><text class="cls-27" transform="matrix(0.51, -0.29, 0.5, 0.29, 1186.94, 974.25)">2</text><polygon class="cls-28" points="1267.18 912.72 1212.48 944.3 1206.52 947.74 1205.84 948.13 1232.77 980.84 1209.48 974.57 1199.63 980.26 1206.04 983.96 1211.38 980.88 1241.69 989 1247.24 985.79 1216.78 949.43 1273.78 916.52 1267.18 912.72"/><text class="cls-29" transform="matrix(0.87, 0.5, -0.87, 0.5, 490.89, 887.84)">9 = 3 yd</text><text class="cls-30" transform="matrix(0.51, 0.29, -0.5, 0.29, 489.92, 839.83)">2</text><polygon class="cls-28" points="598.83 887.25 542.91 854.96 536.8 851.44 536.12 851.04 478.2 866.93 489.3 853.19 479.22 847.37 472.66 851.16 478.12 854.31 463.75 872.2 469.42 875.48 533.82 857.5 592.09 891.14 598.83 887.25"/><polygon class="cls-15" points="1153.12 303.07 1051.8 361.57 1051.8 245.42 1153.12 186.92 1153.12 303.07"/><polygon class="cls-11" points="948.98 170.88 861.64 120.46 861.64 20.35 948.98 70.77 948.98 170.88"/><polygon class="cls-15" points="918.49 432.38 831.16 381.96 831.16 281.84 918.49 332.26 918.49 432.38"/><polygon class="cls-11" points="942.4 307.09 855.07 256.67 855.07 156.55 942.4 206.97 942.4 307.09"/><polygon class="cls-11" points="1005.89 417.83 1074.16 378.41 1074.16 300.15 1005.89 339.56 1005.89 417.83"/><polygon class="cls-15" points="1033.05 143.62 964.78 104.2 964.78 25.94 1033.05 65.35 1033.05 143.62"/><polygon class="cls-11" points="1139.45 393.06 1207.72 353.64 1207.72 275.38 1139.45 314.79 1139.45 393.06"/><polygon class="cls-11" points="998.91 225.13 1086.25 174.71 1086.25 74.59 998.91 125.02 998.91 225.13"/><polygon class="cls-13" points="1227.61 233.19 1126.29 291.68 1126.29 175.53 1227.61 117.04 1227.61 233.19"/><text class="cls-31" transform="matrix(0.87, -0.5, 0, 1, 1160.13, 237.63)">9 = 3</text><text class="cls-32" transform="matrix(0.51, -0.29, 0, 0.58, 1136.41, 224.57)">2</text><polygon class="cls-28" points="1179.28 191.04 1158.69 202.93 1155.25 204.91 1154.86 205.14 1146.3 237.9 1142.71 228.61 1137.03 231.89 1137.03 236.16 1140.11 234.38 1144.79 246.45 1147.99 244.6 1157.37 208.08 1179.28 195.43 1179.28 191.04"/><text class="cls-33" transform="matrix(0.87, -0.5, 0, 1, 1028.74, 168.27)">16 = 4</text><text class="cls-34" transform="matrix(0.51, -0.29, 0, 0.58, 1014.72, 160.55)">2</text><polygon class="cls-28" points="1040.03 140.74 1027.86 147.76 1025.83 148.93 1025.6 149.07 1020.54 168.43 1018.42 162.94 1015.06 164.88 1015.06 167.4 1016.88 166.35 1019.65 173.48 1021.54 172.39 1027.08 150.81 1040.03 143.33 1040.03 140.74"/><polygon class="cls-12" points="844.77 345.28 748.44 289.66 748.44 179.23 844.77 234.85 844.77 345.28"/><text class="cls-35" transform="matrix(0.87, 0.5, 0, 1, 778.35, 268.54)">4 = 2</text><text class="cls-36" transform="matrix(0.51, 0.29, 0, 0.58, 760.32, 237.78)">2</text><polygon class="cls-28" points="792.9 249.98 777.25 240.94 774.63 239.43 774.33 239.26 767.82 256.66 765.09 246.44 760.77 243.95 760.77 247.19 763.11 248.54 766.67 261.84 769.11 263.24 776.24 243.7 792.9 253.32 792.9 249.98"/><polygon class="cls-13" points="976.93 154.12 903.68 111.83 903.68 27.86 976.93 70.15 976.93 154.12"/><text class="cls-37" transform="matrix(0.87, 0.5, 0, 1, 924.2, 93.17)">25 = 5</text><text class="cls-38" transform="matrix(0.51, 0.29, 0, 0.58, 910.85, 70.4)">2</text><polygon class="cls-28" points="941.12 82.99 923.37 72.75 921.43 71.63 921.21 71.5 916.39 84.38 914.37 76.81 911.17 74.97 911.17 77.37 912.9 78.37 915.54 88.21 917.34 89.25 922.62 74.79 941.12 85.47 941.12 82.99"/><ellipse class="cls-39" cx="1144.48" cy="760.62" rx="58.88" ry="31"/><path d="M1154.79,765.22l-.44,3.32-.21,1.56-3.46,2.61s-20.73.06-26.57-1.29a46.75,46.75,0,0,1-7.52-2.48,4.86,4.86,0,0,1-2.91-3.78l-.11-.73-.12-.77c-.07-6,2.1-6.55,2.1-6.55l11.63-2.12,8.63-3.38h15L1154,759A11.8,11.8,0,0,1,1154.79,765.22Z"/><path d="M1175.43,764.23l-1.12,4.69a2.76,2.76,0,0,1-2.66,2.12c-1.17,0-2.57,0-3.55,0-2,0-3.15-2.67-3.15-2.67l-4.57-7.58c-8.86-8.57-10-16.71-10-16.71h10l13.58,2.5,1.73,12.06c0,.15,0,.29.06.44A15,15,0,0,1,1175.43,764.23Z"/><path class="cls-40" d="M1154.35,768.54l-.21,1.56-3.46,2.61s-20.73.06-26.57-1.29a46.75,46.75,0,0,1-7.52-2.48,4.86,4.86,0,0,1-2.91-3.78l-.11-.73a18.93,18.93,0,0,0,3.79,3c6.75,4,23.75,3.92,33.32,3.63Z"/><path class="cls-40" d="M1175.43,764.23l-1.12,4.69a2.76,2.76,0,0,1-2.66,2.12c-1.17,0-2.57,0-3.55,0-2,0-3.15-2.67-3.15-2.67l-4.57-7.58c-8.86-8.57-10-16.71-10-16.71h2a36.31,36.31,0,0,0,9.13,15.34l6.12,9h5.45l2.65-9.29A15,15,0,0,1,1175.43,764.23Z"/><path class="cls-41" d="M1146.74,658.49l8,38.93,2.94,47.48s.84,10.87,16.65,5.79l3.83-34.93a41,41,0,0,0,0-10l-2.43-19.11,4.77-55.92Z"/><path class="cls-42" d="M1123.36,628.76s-3.29,40.77-1.77,60.09a24.18,24.18,0,0,0,.68,14.14L1134,754.61a11,11,0,0,0,8.64,3.76c5.85,0,10.68-5.82,10.68-5.82l-3.11-32.8A55.09,55.09,0,0,0,1147,706l-3.41-9.25,13.2-46.1,15.69-9a19.64,19.64,0,0,0,8.19-8.8,21.47,21.47,0,0,0,1.9-9Z"/><path class="cls-43" d="M1138.89,488a19,19,0,0,0-4.89,12.79,2.9,2.9,0,0,0,1,1.86,8.72,8.72,0,0,0-.58,4.29c.34,2.19,2.25,10.67,2.25,10.67a3.23,3.23,0,0,0,2.88,3.13l4.53.53s2.8,9.19,2.27,16.15l15.42-.58,7.18-6.38a70.53,70.53,0,0,1-4.74-16.89V491.27Z"/><path class="cls-44" d="M1137.45,492.63c.06,3.12.53,7.28,2.39,9.23v4.69h2.54a4.39,4.39,0,0,1,3.33,2.63c1,2.36,4.6,9.63,4.6,9.63a4.86,4.86,0,0,0,3.79,2.49c2.53.11,11.09-2.37,11.09-2.37s2.24-8.16,4.5-11.48,3-20.14-6.22-21.15c0,0-4.89-13.46-25.48-1.67,0,0-3.86,2.14-6.64.54,0,0-.08,3.86,3,4.17A3.4,3.4,0,0,1,1137.45,492.63Z"/><path class="cls-45" d="M1142,507.13s-.54-4.29,2-4.39,1.87,7.39-.06,9.43Z"/><path class="cls-7" d="M1146.39,534.56s14.54-.22,21.28-7.34a15.59,15.59,0,0,1,9.65,1.55c4.81,2.57,9.54,8.19,7.63,26.36s-4.85,37.26-4.85,37.26l2.51,31.44s-10.77,15.58-27.87,17.37c-12.22,1.27-24.65,1.25-31.64-10.66,0,0,5.35-34.57,2.28-55.77,0,0-4.79-17.08,0-23.4S1146.39,534.56,1146.39,534.56Z"/><path class="cls-43" d="M1080.4,555l-4.06-9.56-7.77-3.73a.57.57,0,0,0-.76.23,2.28,2.28,0,0,0-.12,1.62l-4.32-.94L1058,538s-2.34-1.32-2.53.61,3.63,6.69,3.63,6.69,0,8.18,1.54,10.58a19.33,19.33,0,0,0,3.4,4l8.32,3.5Z"/><path class="cls-5" d="M1102.5,579l19.81-25.45s1.57-4.33,9.75-4.71,14.31,3.16,11.89,16.5-35.31,35-35.31,35-13.41,5.39-20.47-7.5-16-28.9-16-28.9-1.68-8.72,8.22-9Z"/><path class="cls-5" d="M1146.39,534.56s.34,3.18,4.58,4c3.75.71,13.12-2.15,18.38-7.49a3.11,3.11,0,0,0,.13-4.17l-3.09-3.64S1166.91,531.72,1146.39,534.56Z"/></g></g></svg>